<svg width="1200" height="630" viewBox="0 0 1200 630" xmlns="http://www.w3.org/2000/svg">
  <rect width="1200" height="630" fill="#1B8FAF"/>
  <rect x="0" y="580" width="1200" height="50" fill="#14758F"/>
  <!-- Dot grid pattern -->
  <g fill="#FFFFFF" opacity="0.08">
    <circle cx="60" cy="60" r="2"/><circle cx="120" cy="60" r="2"/><circle cx="180" cy="60" r="2"/><circle cx="240" cy="60" r="2"/><circle cx="300" cy="60" r="2"/><circle cx="360" cy="60" r="2"/><circle cx="420" cy="60" r="2"/><circle cx="480" cy="60" r="2"/><circle cx="540" cy="60" r="2"/><circle cx="600" cy="60" r="2"/><circle cx="660" cy="60" r="2"/><circle cx="720" cy="60" r="2"/><circle cx="780" cy="60" r="2"/><circle cx="840" cy="60" r="2"/><circle cx="900" cy="60" r="2"/><circle cx="960" cy="60" r="2"/><circle cx="1020" cy="60" r="2"/><circle cx="1080" cy="60" r="2"/><circle cx="1140" cy="60" r="2"/>
    <circle cx="60" cy="120" r="2"/><circle cx="120" cy="120" r="2"/><circle cx="180" cy="120" r="2"/><circle cx="240" cy="120" r="2"/><circle cx="300" cy="120" r="2"/><circle cx="360" cy="120" r="2"/><circle cx="420" cy="120" r="2"/><circle cx="480" cy="120" r="2"/><circle cx="540" cy="120" r="2"/><circle cx="600" cy="120" r="2"/><circle cx="660" cy="120" r="2"/><circle cx="720" cy="120" r="2"/><circle cx="780" cy="120" r="2"/><circle cx="840" cy="120" r="2"/><circle cx="900" cy="120" r="2"/><circle cx="960" cy="120" r="2"/><circle cx="1020" cy="120" r="2"/><circle cx="1080" cy="120" r="2"/><circle cx="1140" cy="120" r="2"/>
    <circle cx="60" cy="180" r="2"/><circle cx="120" cy="180" r="2"/><circle cx="180" cy="180" r="2"/><circle cx="240" cy="180" r="2"/><circle cx="300" cy="180" r="2"/><circle cx="360" cy="180" r="2"/><circle cx="420" cy="180" r="2"/><circle cx="480" cy="180" r="2"/><circle cx="540" cy="180" r="2"/><circle cx="600" cy="180" r="2"/><circle cx="660" cy="180" r="2"/><circle cx="720" cy="180" r="2"/><circle cx="780" cy="180" r="2"/><circle cx="840" cy="180" r="2"/><circle cx="900" cy="180" r="2"/><circle cx="960" cy="180" r="2"/><circle cx="1020" cy="180" r="2"/><circle cx="1080" cy="180" r="2"/><circle cx="1140" cy="180" r="2"/>
    <circle cx="60" cy="240" r="2"/><circle cx="120" cy="240" r="2"/><circle cx="180" cy="240" r="2"/><circle cx="240" cy="240" r="2"/><circle cx="300" cy="240" r="2"/><circle cx="360" cy="240" r="2"/><circle cx="420" cy="240" r="2"/><circle cx="480" cy="240" r="2"/><circle cx="540" cy="240" r="2"/><circle cx="600" cy="240" r="2"/><circle cx="660" cy="240" r="2"/><circle cx="720" cy="240" r="2"/><circle cx="780" cy="240" r="2"/><circle cx="840" cy="240" r="2"/><circle cx="900" cy="240" r="2"/><circle cx="960" cy="240" r="2"/><circle cx="1020" cy="240" r="2"/><circle cx="1080" cy="240" r="2"/><circle cx="1140" cy="240" r="2"/>
    <circle cx="60" cy="300" r="2"/><circle cx="120" cy="300" r="2"/><circle cx="180" cy="300" r="2"/><circle cx="240" cy="300" r="2"/><circle cx="300" cy="300" r="2"/><circle cx="360" cy="300" r="2"/><circle cx="420" cy="300" r="2"/><circle cx="480" cy="300" r="2"/><circle cx="540" cy="300" r="2"/><circle cx="600" cy="300" r="2"/><circle cx="660" cy="300" r="2"/><circle cx="720" cy="300" r="2"/><circle cx="780" cy="300" r="2"/><circle cx="840" cy="300" r="2"/><circle cx="900" cy="300" r="2"/><circle cx="960" cy="300" r="2"/><circle cx="1020" cy="300" r="2"/><circle cx="1080" cy="300" r="2"/><circle cx="1140" cy="300" r="2"/>
    <circle cx="60" cy="360" r="2"/><circle cx="120" cy="360" r="2"/><circle cx="180" cy="360" r="2"/><circle cx="240" cy="360" r="2"/><circle cx="300" cy="360" r="2"/><circle cx="360" cy="360" r="2"/><circle cx="420" cy="360" r="2"/><circle cx="480" cy="360" r="2"/><circle cx="540" cy="360" r="2"/><circle cx="600" cy="360" r="2"/><circle cx="660" cy="360" r="2"/><circle cx="720" cy="360" r="2"/><circle cx="780" cy="360" r="2"/><circle cx="840" cy="360" r="2"/><circle cx="900" cy="360" r="2"/><circle cx="960" cy="360" r="2"/><circle cx="1020" cy="360" r="2"/><circle cx="1080" cy="360" r="2"/><circle cx="1140" cy="360" r="2"/>
    <circle cx="60" cy="420" r="2"/><circle cx="120" cy="420" r="2"/><circle cx="180" cy="420" r="2"/><circle cx="240" cy="420" r="2"/><circle cx="300" cy="420" r="2"/><circle cx="360" cy="420" r="2"/><circle cx="420" cy="420" r="2"/><circle cx="480" cy="420" r="2"/><circle cx="540" cy="420" r="2"/><circle cx="600" cy="420" r="2"/><circle cx="660" cy="420" r="2"/><circle cx="720" cy="420" r="2"/><circle cx="780" cy="420" r="2"/><circle cx="840" cy="420" r="2"/><circle cx="900" cy="420" r="2"/><circle cx="960" cy="420" r="2"/><circle cx="1020" cy="420" r="2"/><circle cx="1080" cy="420" r="2"/><circle cx="1140" cy="420" r="2"/>
    <circle cx="60" cy="480" r="2"/><circle cx="120" cy="480" r="2"/><circle cx="180" cy="480" r="2"/><circle cx="240" cy="480" r="2"/><circle cx="300" cy="480" r="2"/><circle cx="360" cy="480" r="2"/><circle cx="420" cy="480" r="2"/><circle cx="480" cy="480" r="2"/><circle cx="540" cy="480" r="2"/><circle cx="600" cy="480" r="2"/><circle cx="660" cy="480" r="2"/><circle cx="720" cy="480" r="2"/><circle cx="780" cy="480" r="2"/><circle cx="840" cy="480" r="2"/><circle cx="900" cy="480" r="2"/><circle cx="960" cy="480" r="2"/><circle cx="1020" cy="480" r="2"/><circle cx="1080" cy="480" r="2"/><circle cx="1140" cy="480" r="2"/>
    <circle cx="60" cy="540" r="2"/><circle cx="120" cy="540" r="2"/><circle cx="180" cy="540" r="2"/><circle cx="240" cy="540" r="2"/><circle cx="300" cy="540" r="2"/><circle cx="360" cy="540" r="2"/><circle cx="420" cy="540" r="2"/><circle cx="480" cy="540" r="2"/><circle cx="540" cy="540" r="2"/><circle cx="600" cy="540" r="2"/><circle cx="660" cy="540" r="2"/><circle cx="720" cy="540" r="2"/><circle cx="780" cy="540" r="2"/><circle cx="840" cy="540" r="2"/><circle cx="900" cy="540" r="2"/><circle cx="960" cy="540" r="2"/><circle cx="1020" cy="540" r="2"/><circle cx="1080" cy="540" r="2"/><circle cx="1140" cy="540" r="2"/>
  </g>
  <!-- Site name -->
  <text x="600" y="260" text-anchor="middle" font-family="system-ui, sans-serif" font-size="52" font-weight="700" fill="#FFFFFF" letter-spacing="-1">ISP by Address Canada</text>
  <!-- Tagline -->
  <text x="600" y="320" text-anchor="middle" font-family="system-ui, sans-serif" font-size="24" fill="#FFFFFF" opacity="0.85">Find Internet Providers at Your Exact Address</text>
  <!-- Stats bar -->
  <text x="600" y="400" text-anchor="middle" font-family="ui-monospace, monospace" font-size="18" fill="#FFFFFF" opacity="0.7" letter-spacing="2">16.6M DATA POINTS  ·  50+ PROVIDERS  ·  100+ CITIES</text>
  <!-- Bottom accent -->
  <text x="600" y="608" text-anchor="middle" font-family="system-ui, sans-serif" font-size="14" fill="#FFFFFF" opacity="0.6">ispbyaddress.ca</text>
</svg>
